<?xml version="1.0" encoding="UTF-8"?>
<svg version="1.1" xmlns="http://www.w3.org/2000/svg" width="557" height="557">
<path d="M0 0 C1.09570312 0.00902344 2.19140625 0.01804687 3.3203125 0.02734375 C4.16335938 0.03894531 5.00640625 0.05054688 5.875 0.0625 C5.875 0.7225 5.875 1.3825 5.875 2.0625 C10.825 2.0625 15.775 2.0625 20.875 2.0625 C20.875 2.7225 20.875 3.3825 20.875 4.0625 C22.855 4.0625 24.835 4.0625 26.875 4.0625 C26.875 4.7225 26.875 5.3825 26.875 6.0625 C28.855 6.0625 30.835 6.0625 32.875 6.0625 C32.875 6.7225 32.875 7.3825 32.875 8.0625 C34.855 8.0625 36.835 8.0625 38.875 8.0625 C38.875 8.7225 38.875 9.3825 38.875 10.0625 C39.865 10.0625 40.855 10.0625 41.875 10.0625 C41.875 10.7225 41.875 11.3825 41.875 12.0625 C43.855 12.0625 45.835 12.0625 47.875 12.0625 C47.875 12.7225 47.875 13.3825 47.875 14.0625 C48.865 14.0625 49.855 14.0625 50.875 14.0625 C50.875 14.7225 50.875 15.3825 50.875 16.0625 C51.865 16.0625 52.855 16.0625 53.875 16.0625 C53.875 16.7225 53.875 17.3825 53.875 18.0625 C54.865 18.0625 55.855 18.0625 56.875 18.0625 C56.875 19.0525 56.875 20.0425 56.875 21.0625 C57.865 21.3925 58.855 21.7225 59.875 22.0625 C59.875 22.7225 59.875 23.3825 59.875 24.0625 C60.865 24.0625 61.855 24.0625 62.875 24.0625 C62.875 24.7225 62.875 25.3825 62.875 26.0625 C63.865 26.3925 64.855 26.7225 65.875 27.0625 C65.875 28.0525 65.875 29.0425 65.875 30.0625 C66.865 30.0625 67.855 30.0625 68.875 30.0625 C68.875 31.3825 68.875 32.7025 68.875 34.0625 C69.865 34.0625 70.855 34.0625 71.875 34.0625 C71.875 35.3825 71.875 36.7025 71.875 38.0625 C72.865 38.0625 73.855 38.0625 74.875 38.0625 C74.875 39.3825 74.875 40.7025 74.875 42.0625 C75.865 42.0625 76.855 42.0625 77.875 42.0625 C77.875 44.0425 77.875 46.0225 77.875 48.0625 C78.865 48.0625 79.855 48.0625 80.875 48.0625 C80.875 50.0425 80.875 52.0225 80.875 54.0625 C81.865 54.3925 82.855 54.7225 83.875 55.0625 C83.875 58.0325 83.875 61.0025 83.875 64.0625 C84.865 64.0625 85.855 64.0625 86.875 64.0625 C86.875 67.6925 86.875 71.3225 86.875 75.0625 C87.865 75.3925 88.855 75.7225 89.875 76.0625 C89.875 84.6425 89.875 93.2225 89.875 102.0625 C88.885 102.0625 87.895 102.0625 86.875 102.0625 C86.875 106.6825 86.875 111.3025 86.875 116.0625 C85.39 116.5575 85.39 116.5575 83.875 117.0625 C83.875 120.0325 83.875 123.0025 83.875 126.0625 C82.885 126.0625 81.895 126.0625 80.875 126.0625 C80.875 128.3725 80.875 130.6825 80.875 133.0625 C79.885 133.3925 78.895 133.7225 77.875 134.0625 C77.875 135.7125 77.875 137.3625 77.875 139.0625 C76.885 139.0625 75.895 139.0625 74.875 139.0625 C74.875 140.3825 74.875 141.7025 74.875 143.0625 C73.885 143.0625 72.895 143.0625 71.875 143.0625 C71.875 144.3825 71.875 145.7025 71.875 147.0625 C70.885 147.0625 69.895 147.0625 68.875 147.0625 C68.545 148.3825 68.215 149.7025 67.875 151.0625 C67.215 151.0625 66.555 151.0625 65.875 151.0625 C65.545 152.3825 65.215 153.7025 64.875 155.0625 C64.215 155.0625 63.555 155.0625 62.875 155.0625 C62.875 156.0525 62.875 157.0425 62.875 158.0625 C62.215 158.3925 61.555 158.7225 60.875 159.0625 C60.22286708 161.08713255 60.22286708 161.08713255 59.875 163.0625 C60.865 163.3925 61.855 163.7225 62.875 164.0625 C62.99875 165.031875 63.1225 166.00125 63.25 167 C63.45625 168.010625 63.6625 169.02125 63.875 170.0625 C64.535 170.3925 65.195 170.7225 65.875 171.0625 C65.875 173.0425 65.875 175.0225 65.875 177.0625 C64.885 177.3925 63.895 177.7225 62.875 178.0625 C62.875 283.6625 62.875 389.2625 62.875 498.0625 C62.215 498.3925 61.555 498.7225 60.875 499.0625 C60.46770772 501.38406597 60.13061323 503.7193787 59.875 506.0625 C58.885 506.3925 57.895 506.7225 56.875 507.0625 C56.875 508.7125 56.875 510.3625 56.875 512.0625 C56.215 512.3925 55.555 512.7225 54.875 513.0625 C53.74149466 515.07919827 53.74149466 515.07919827 52.875 517.0625 C52.215 517.0625 51.555 517.0625 50.875 517.0625 C50.875 517.7225 50.875 518.3825 50.875 519.0625 C49.885 519.0625 48.895 519.0625 47.875 519.0625 C47.875 519.7225 47.875 520.3825 47.875 521.0625 C46.885 521.0625 45.895 521.0625 44.875 521.0625 C44.875 521.7225 44.875 522.3825 44.875 523.0625 C43.885 523.0625 42.895 523.0625 41.875 523.0625 C41.875 523.7225 41.875 524.3825 41.875 525.0625 C40.885 525.0625 39.895 525.0625 38.875 525.0625 C38.875 525.7225 38.875 526.3825 38.875 527.0625 C38.02035156 527.26746094 37.16570312 527.47242188 36.28515625 527.68359375 C35.18042969 527.95300781 34.07570313 528.22242188 32.9375 528.5 C31.28427734 528.90025391 31.28427734 528.90025391 29.59765625 529.30859375 C26.98078746 529.79245725 26.98078746 529.79245725 25.875 531.0625 C23.79322971 531.16224448 21.70800606 531.1899024 19.62384796 531.19113445 C18.96017125 531.19288749 18.29649455 531.19464053 17.61270642 531.19644669 C15.36096537 531.20114483 13.10928783 531.19863146 10.85754395 531.19621277 C9.23792324 531.19807885 7.61830298 531.20037873 5.99868345 531.20307809 C1.52609314 531.20922805 -2.94647857 531.20905875 -7.41907215 531.20788372 C-12.23454391 531.2076805 -17.05000957 531.213191 -21.86547852 531.21794128 C-31.30993158 531.22626688 -40.75437841 531.22899702 -50.19883484 531.22955366 C-57.87560454 531.23002811 -65.55237218 531.23207929 -73.22914124 531.23525429 C-94.98062936 531.24406761 -116.73211254 531.24867284 -138.48360246 531.24792381 C-139.65754881 531.24788386 -140.83149515 531.2478439 -142.04101562 531.24780273 C-143.21639155 531.24776185 -144.39176747 531.24772097 -145.60276085 531.24767885 C-164.64054611 531.24727263 -183.67831156 531.25683438 -202.7160911 531.2709411 C-222.25069199 531.28530196 -241.78528323 531.29221138 -261.31988955 531.29134732 C-272.29220191 531.29101516 -283.26449353 531.29377057 -294.23680115 531.30452538 C-303.58250948 531.31362676 -312.9281877 531.31580875 -322.27389854 531.30901595 C-327.04251901 531.30574836 -331.81108167 531.30570261 -336.57969666 531.3143692 C-340.9471612 531.32222499 -345.31452202 531.32081213 -349.68198401 531.31208507 C-351.26016617 531.310548 -352.83835604 531.31237402 -354.41652912 531.31794515 C-362.230915 531.34369852 -369.55261857 531.1938741 -377.125 529.0625 C-377.125 528.4025 -377.125 527.7425 -377.125 527.0625 C-378.23875 527.124375 -378.23875 527.124375 -379.375 527.1875 C-382.21258952 527.05851866 -383.71273938 526.49198778 -386.125 525.0625 C-386.125 524.4025 -386.125 523.7425 -386.125 523.0625 C-387.115 523.0625 -388.105 523.0625 -389.125 523.0625 C-389.125 522.4025 -389.125 521.7425 -389.125 521.0625 C-390.115 521.0625 -391.105 521.0625 -392.125 521.0625 C-392.125 520.4025 -392.125 519.7425 -392.125 519.0625 C-393.115 518.7325 -394.105 518.4025 -395.125 518.0625 C-399.90771179 513.11486711 -404.93909258 505.68346953 -405.296875 498.71484375 C-405.24015625 497.83957031 -405.1834375 496.96429688 -405.125 496.0625 C-405.785 496.0625 -406.445 496.0625 -407.125 496.0625 C-408.32664708 492.30396779 -408.26396469 488.593743 -408.25084114 484.69142818 C-408.25229458 483.9431388 -408.25374802 483.19484942 -408.25524551 482.4238846 C-408.25891114 479.90243749 -408.25541646 477.38105061 -408.25198364 474.85960388 C-408.25313523 473.03925246 -408.25472302 471.21890127 -408.25671089 469.39855057 C-408.26089892 464.38527949 -408.25881587 459.37202735 -408.25572467 454.35875618 C-408.25346869 448.956536 -408.25695117 443.55431914 -408.25970459 438.15209961 C-408.26415904 427.56504986 -408.26318728 416.9780072 -408.26029195 406.39095717 C-408.25803677 397.78981805 -408.25772589 389.18868091 -408.25881577 380.58754158 C-408.258969 379.3650154 -408.25912223 378.14248922 -408.25928011 376.8829168 C-408.25959982 374.39966312 -408.25992403 371.91640945 -408.2602527 369.43315578 C-408.26310651 346.12966904 -408.25982195 322.82618623 -408.25445233 299.52270014 C-408.24998382 279.5100042 -408.25076081 259.49731504 -408.25537109 239.48461914 C-408.26071763 216.26495091 -408.26283242 193.04528613 -408.25975883 169.82561737 C-408.25944027 167.3516258 -408.2591259 164.87763423 -408.25881577 162.40364265 C-408.25866149 161.18627211 -408.25850721 159.96890157 -408.25834826 158.71464102 C-408.25748339 150.11937021 -408.25894534 141.52410157 -408.26129532 132.9288311 C-408.26409437 122.46057575 -408.26335279 111.9923279 -408.25801457 101.52407341 C-408.25537908 96.17899144 -408.25436996 90.833922 -408.25766373 85.4888401 C-408.26062975 80.60186705 -408.25902871 75.71491822 -408.25368617 70.82794739 C-408.25256331 69.05413591 -408.2531503 67.28032241 -408.25556196 65.50651222 C-408.2585758 63.10688874 -408.25551111 60.70734965 -408.25084114 58.30773067 C-408.25318231 57.60923877 -408.25552347 56.91074686 -408.25793558 56.19108853 C-408.24617246 53.19404398 -408.08169561 50.93258682 -407.125 48.0625 C-406.465 48.0625 -405.805 48.0625 -405.125 48.0625 C-405.24875 47.11375 -405.3725 46.165 -405.5 45.1875 C-405.53346291 39.73304524 -402.30342117 35.2926615 -399.125 31.0625 C-398.135 30.4025 -397.145 29.7425 -396.125 29.0625 C-395.795 28.0725 -395.465 27.0825 -395.125 26.0625 C-392.5078125 24.01953125 -392.5078125 24.01953125 -389.25 21.875 C-388.18007813 21.15957031 -387.11015625 20.44414062 -386.0078125 19.70703125 C-383.125 18.0625 -383.125 18.0625 -380.125 18.0625 C-380.125 17.4025 -380.125 16.7425 -380.125 16.0625 C-372.72379452 14.08927444 -365.87399697 13.78440501 -358.23594666 13.82199097 C-356.95827205 13.82028212 -355.68059744 13.81857327 -354.36420542 13.81681263 C-350.83860405 13.81236339 -347.31312536 13.82030921 -343.7875396 13.83036876 C-339.97784643 13.8390361 -336.16815973 13.83608078 -332.35845947 13.83456421 C-325.76478892 13.83351743 -319.17115806 13.83977236 -312.57749748 13.85103989 C-303.04427227 13.86732003 -293.51106618 13.87250546 -283.97782857 13.87501587 C-268.5093781 13.87938903 -253.04094877 13.89268784 -237.57250977 13.91162109 C-222.54972438 13.92998971 -207.52694474 13.94414141 -192.50415039 13.95263672 C-191.57755928 13.95316217 -190.65096816 13.95368761 -189.69629853 13.95422898 C-185.04768812 13.95683913 -180.39907766 13.95936653 -175.75046718 13.96185279 C-137.20862999 13.98257348 -98.66681639 14.01778868 -60.125 14.0625 C-60.125 14.7225 -60.125 15.3825 -60.125 16.0625 C-58.70797487 15.92019192 -57.2913904 15.77349254 -55.875 15.625 C-55.08609375 15.54378906 -54.2971875 15.46257813 -53.484375 15.37890625 C-51.30135361 15.08615007 -49.2476818 14.64185581 -47.125 14.0625 C-47.125 13.4025 -47.125 12.7425 -47.125 12.0625 C-46.320625 11.815 -45.51625 11.5675 -44.6875 11.3125 C-39.68989102 9.55895299 -34.75137098 7.52386596 -30.1171875 4.9453125 C-27.86240174 3.94613293 -26.32515226 3.85582826 -23.875 3.9375 C-22.6375 3.97875 -21.4 4.02 -20.125 4.0625 C-20.125 3.4025 -20.125 2.7425 -20.125 2.0625 C-19.28195312 2.00191406 -18.43890625 1.94132813 -17.5703125 1.87890625 C-16.47460938 1.79511719 -15.37890625 1.71132812 -14.25 1.625 C-13.15945313 1.54378906 -12.06890625 1.46257813 -10.9453125 1.37890625 C-7.02425951 0.93900972 -4.11124252 -0.04373662 0 0 Z " fill="#6DB4F3" transform="translate(446.125,8.9375)"/>
<path d="M0 0 C0.88772095 -0.01260864 1.77544189 -0.02521729 2.69006348 -0.03820801 C4.11675354 -0.02606262 4.11675354 -0.02606262 5.57226562 -0.01367188 C6.55594116 -0.01749878 7.5396167 -0.02132568 8.55310059 -0.02526855 C10.63095118 -0.02798815 12.70883597 -0.02062369 14.78662109 -0.00390625 C17.96724774 0.01750228 21.1456155 -0.00370676 24.32617188 -0.02929688 C26.34570811 -0.02665361 28.36524294 -0.02152865 30.38476562 -0.01367188 C31.33589233 -0.0217688 32.28701904 -0.02986572 33.26696777 -0.03820801 C39.85726695 0.05539655 39.85726695 0.05539655 43.04345703 2.42578125 C44.41452482 4.42430265 45.4352884 6.2788527 46.35351562 8.51757812 C48.34773611 12.62874037 50.19018144 14.61165182 54.47851562 16.51757812 C59.10674349 17.17336937 63.20512383 16.83592607 67.72851562 15.70507812 C71.44740443 12.74687112 73.03987994 9.25392157 75.08398438 5.01367188 C76.47851562 2.51757812 76.47851562 2.51757812 79.47851562 0.51757812 C81.40684509 0.25015259 81.40684509 0.25015259 83.61108398 0.22705078 C84.43881821 0.21429108 85.26655243 0.20153137 86.11936951 0.18838501 C87.45536949 0.18504654 87.45536949 0.18504654 88.81835938 0.18164062 C89.73686172 0.17498383 90.65536407 0.16832703 91.60169983 0.16146851 C93.54426063 0.15134364 95.4868562 0.14665143 97.42944336 0.14697266 C100.40146154 0.14259954 103.37199463 0.10627887 106.34375 0.06835938 C108.23111471 0.06249118 110.11848648 0.05852181 112.00585938 0.05664062 C113.33882301 0.03508408 113.33882301 0.03508408 114.69871521 0.01309204 C120.87029778 0.05879666 120.87029778 0.05879666 124.00244141 2.42138672 C125.40889503 4.41870904 126.4643002 6.27205602 127.41601562 8.51757812 C129.23578813 12.25473545 130.67728966 14.5343298 134.47851562 16.51757812 C140.56772324 17.41853231 146.30598087 16.9990919 151.47851562 13.51757812 C153.80603163 9.99470888 155.63768826 6.31042376 157.47851562 2.51757812 C159.03821249 0.95788126 160.56602111 1.35958522 162.73535156 1.32470703 C163.64009216 1.3086441 164.54483276 1.29258118 165.47698975 1.27603149 C169.62885934 1.23168751 173.78056614 1.19049903 177.93261719 1.16748047 C180.12282953 1.1509322 182.31298812 1.12365727 184.50292969 1.08544922 C187.65653579 1.03068258 190.80887298 1.00880449 193.96289062 0.99414062 C194.94014099 0.97147125 195.91739136 0.94880188 196.92425537 0.92544556 C198.30027924 0.92972061 198.30027924 0.92972061 199.70410156 0.93408203 C200.90870026 0.92195175 200.90870026 0.92195175 202.13763428 0.90957642 C205.89212378 1.88473735 207.1493235 3.40248712 209.47851562 6.51757812 C210.23361102 10.44571412 210.144024 14.33302986 210.09997559 18.32250977 C210.10636441 19.53198556 210.11275323 20.74146135 210.11933565 21.98758793 C210.13195962 25.3420187 210.12214403 28.69502674 210.10282087 32.04933596 C210.08740012 35.66767546 210.10079409 39.28592316 210.11056519 42.90426636 C210.12509773 49.99138622 210.11285185 57.07821978 210.09145194 64.16531253 C210.06744999 72.41678129 210.06915582 80.66818432 210.07175785 88.91968024 C210.0754488 103.64149997 210.05461586 118.36318474 210.02050781 133.08496094 C209.98741596 147.3734071 209.97324943 161.6617116 209.97949219 175.95019531 C209.98625509 191.50573045 209.98379881 207.06120623 209.96413279 222.6167326 C209.9630933 223.43918844 209.96205381 224.26164429 209.96098283 225.10902303 C209.95889192 226.76092609 209.95678094 228.41282913 209.95464966 230.06473213 C209.94775188 235.81774676 209.94708511 241.5707431 209.9485321 247.32376099 C209.94997131 254.3338571 209.94029009 261.34383766 209.91658574 268.35389543 C209.90471965 271.93121777 209.8976046 275.50837896 209.90342331 279.08572006 C209.90954118 282.96147663 209.8924435 286.83692955 209.8729248 290.71264648 C209.87825273 291.84639237 209.88358066 292.98013826 209.88907003 294.14824009 C209.88001339 295.18619693 209.87095675 296.22415377 209.86162567 297.29356384 C209.85926887 298.63541701 209.85926887 298.63541701 209.85686445 300.00437832 C209.39214884 303.09127355 208.27213682 304.98450362 206.47851562 307.51757812 C203.73072126 309.36555285 201.52380966 309.77571554 198.24829102 309.82397461 C197.42386002 309.83996201 196.59942902 309.8559494 195.75001526 309.87242126 C194.42646278 309.88046532 194.42646278 309.88046532 193.07617188 309.88867188 C192.16145615 309.89770035 191.24674042 309.90672882 190.30430603 309.91603088 C188.37193062 309.93052192 186.43950628 309.93941727 184.50708008 309.94311523 C181.55466027 309.95502309 178.60432334 310.00422841 175.65234375 310.0546875 C173.77279664 310.06415088 171.89323672 310.07138632 170.01367188 310.07617188 C169.13332779 310.09570419 168.2529837 310.11523651 167.34596252 310.13536072 C162.94276167 310.10302384 161.06770053 309.97195238 157.48022461 307.20532227 C155.19691515 304.1394662 153.9495 301.03514946 152.47851562 297.51757812 C149.66485972 294.17636174 147.6352811 292.74401994 143.20898438 292.27929688 C139.10648626 292.15956191 136.0689238 292.27914406 132.22851562 293.83007812 C128.80020534 297.18047227 126.95907576 300.76965013 124.87304688 305.05664062 C123.47851562 307.51757812 123.47851562 307.51757812 120.47851562 309.51757812 C117.49171638 309.75025553 114.60059861 309.86967341 111.61132812 309.88867188 C110.73958954 309.89770035 109.86785095 309.90672882 108.96969604 309.91603088 C107.12550289 309.93053675 105.28125823 309.93942096 103.43701172 309.94311523 C100.6205333 309.95500628 97.80624996 310.00418153 94.99023438 310.0546875 C93.19727631 310.06415259 91.40430479 310.07138721 89.61132812 310.07617188 C88.35172775 310.10547035 88.35172775 310.10547035 87.06668091 310.13536072 C82.68884545 310.10171337 81.01271271 309.94578821 77.47973633 307.11376953 C75.75797513 304.88012203 74.57828007 303.05081951 73.54101562 300.45507812 C71.56575874 296.34125572 69.78265524 294.39574814 65.47851562 292.51757812 C60.91943974 291.73248047 56.64126915 291.48269045 52.38867188 293.51757812 C47.93329034 296.94929432 45.74582986 301.3645637 43.52148438 306.44335938 C42.47851562 308.51757813 42.47851562 308.51757813 40.47851562 309.51757812 C39.08611759 309.63172785 37.68861842 309.6868781 36.29174805 309.71044922 C34.9948127 309.73454361 34.9948127 309.73454361 33.67167664 309.75912476 C29.7156146 309.80358421 25.75972025 309.84463992 21.8034668 309.86767578 C19.71709031 309.88423561 17.63077056 309.9115259 15.54467773 309.94970703 C12.53664723 310.00448076 9.52994645 310.02635054 6.52148438 310.04101562 C5.59111862 310.063685 4.66075287 310.08635437 3.70219421 310.10971069 C2.39107414 310.10543564 2.39107414 310.10543564 1.0534668 310.10107422 C0.28894699 310.10916107 -0.47557281 310.11724792 -1.26325989 310.12557983 C-4.7036069 309.19930484 -6.74167121 307.53504627 -8.52148438 304.51757812 C-9.2804155 300.53733295 -9.19126828 296.59552878 -9.14967346 292.55406189 C-9.15676785 291.32754632 -9.16386224 290.10103075 -9.17117161 288.83734804 C-9.18573355 285.43539755 -9.17785281 282.03483802 -9.16044867 278.63298929 C-9.14708609 274.96353435 -9.16250765 271.29418531 -9.17427063 267.6247406 C-9.19265945 260.43770296 -9.18412699 253.250937 -9.16618241 246.06390779 C-9.15216355 240.22403365 -9.14826206 234.38423331 -9.15162468 228.54434395 C-9.15210212 227.71356792 -9.15257956 226.88279189 -9.15307147 226.02684082 C-9.15409779 224.3392114 -9.15515315 222.651582 -9.15623724 220.96395261 C-9.16480667 206.03800709 -9.14812085 191.11219287 -9.1184082 176.1862793 C-9.089565 161.6969654 -9.08248938 147.2078406 -9.09790039 132.71850586 C-9.1146534 116.94579707 -9.11870638 101.17317809 -9.10119003 85.40046698 C-9.09934561 83.71931018 -9.09751088 82.03815336 -9.09568596 80.35699654 C-9.09477387 79.52980124 -9.09386178 78.70260595 -9.09292205 77.85034413 C-9.08731144 72.01569701 -9.09062866 66.18109366 -9.09723091 60.3464489 C-9.10495449 53.23858473 -9.09824675 46.13090685 -9.07305587 39.02308028 C-9.06053855 35.39520457 -9.05444105 31.76761921 -9.06559753 28.13973236 C-9.07745124 24.21101166 -9.05842381 20.28279444 -9.03614807 16.35411072 C-9.04438884 15.20188819 -9.05262961 14.04966567 -9.06112009 12.86252731 C-9.0500724 11.81262794 -9.03902472 10.76272857 -9.02764225 9.68101406 C-9.02645077 8.77391451 -9.02525929 7.86681497 -9.0240317 6.93222755 C-8.00564643 2.03906967 -4.77716773 0.01952891 0 0 Z " fill="#0A3B87" transform="translate(151.521484375,171.482421875)"/>
<path d="M0 0 C1.91038658 -0.00256327 1.91038658 -0.00256327 3.85936683 -0.00517833 C7.37356678 -0.00962742 10.88764365 -0.00168199 14.40182793 0.00837779 C18.19925104 0.01704537 21.99666767 0.0140898 25.7940979 0.01257324 C32.36648759 0.01152648 38.93883745 0.01778125 45.51121712 0.02904892 C55.01367325 0.04532927 64.5161102 0.05051452 74.01857876 0.0530249 C89.43711497 0.05739803 104.85562997 0.07069675 120.27415466 0.08963013 C135.24843744 0.10799883 150.22271445 0.12215049 165.19700623 0.13064575 C166.12061034 0.1311712 167.04421446 0.13169665 167.99580658 0.13223802 C172.62943293 0.13484816 177.26305931 0.13737556 181.89668572 0.13986182 C220.31410883 0.16058241 258.73150828 0.19579753 297.14891052 0.24050903 C296.37184753 1.01668579 295.59478455 1.79286255 294.79417419 2.59255981 C286.42949389 10.47835502 286.42949389 10.47835502 280.37200356 20.05904102 C278.34293909 24.51400689 276.16280859 28.31014486 272.14891052 31.24050903 C263.81904037 34.11349246 254.3856355 33.14970292 245.71287537 32.97171021 C242.99526818 32.96241128 240.27788509 32.97584856 237.56030273 32.98843384 C231.71818651 33.00384197 225.87847928 32.9650906 220.03686142 32.88939476 C211.58268244 32.78028338 203.12999244 32.758417 194.67519064 32.75810067 C180.94520301 32.75561066 167.21632429 32.68925236 153.48680115 32.57962036 C140.1746688 32.47351302 126.86273982 32.38744957 113.55027771 32.33547974 C112.7300304 32.33226427 111.90978308 32.3290488 111.06467979 32.32573589 C102.10587238 32.29124685 93.14705607 32.26304375 84.18821144 32.24029255 C83.40042091 32.23827047 82.61263038 32.2362484 81.8009674 32.23416505 C77.07654707 32.22208104 77.07654707 32.22208104 72.352125 32.21069709 C63.14156629 32.188924 53.93155168 32.1479303 44.72127022 32.07224099 C38.94513792 32.02501128 33.16902883 31.99031899 27.3927574 31.96537127 C24.06187851 31.95026126 20.7317034 31.9259141 17.40096092 31.8881855 C13.78702691 31.84794241 10.1737724 31.83231398 6.55964661 31.82246399 C5.51197786 31.80447178 4.46430911 31.78647956 3.38489282 31.76794213 C-2.88168955 31.78206841 -7.63530886 32.6165259 -12.85108948 36.24050903 C-27.94998607 51.73674501 -19.56661295 84.16325319 -19.85108948 99.24050903 C74.19891052 99.24050903 168.24891052 99.24050903 265.14891052 99.24050903 C271.14891052 115.24050903 271.14891052 115.24050903 273.14891052 121.24050903 C176.45891052 121.24050903 79.76891052 121.24050903 -19.85108948 121.24050903 C-19.78976869 182.54133364 -19.78976869 182.54133364 -19.69093323 243.84207153 C-19.67484078 252.10411524 -19.65899727 260.36615937 -19.64356995 268.62820435 C-19.64162601 269.66372586 -19.63968207 270.69924737 -19.63767922 271.76614833 C-19.60665335 288.48674829 -19.58968254 305.20733451 -19.57789525 321.92795783 C-19.56548697 339.08614394 -19.53799282 356.24425797 -19.49647641 373.40239859 C-19.47133183 383.99102875 -19.4579729 394.5795394 -19.4596599 405.16819984 C-19.45968965 412.42793823 -19.44507402 419.68755484 -19.4189252 426.94724578 C-19.40426862 431.13656424 -19.39608537 435.32563293 -19.40528679 439.51497269 C-19.41357208 443.35212693 -19.40342382 447.18877927 -19.37875286 451.02585906 C-19.37306781 452.41225302 -19.37408698 453.79869453 -19.38257703 455.18507415 C-19.42659522 463.04815598 -18.99479486 468.49157549 -14.85108948 475.24050903 C-14.35608948 476.72550903 -14.35608948 476.72550903 -13.85108948 478.24050903 C-12.06880011 479.38260721 -12.06880011 479.38260721 -9.85108948 480.24050903 C-9.11366856 480.58459641 -8.37624765 480.92868379 -7.61648065 481.28319806 C-4.37563926 482.4050983 -1.78366224 482.49238223 1.64516926 482.49498463 C2.28674696 482.4981911 2.92832466 482.50139758 3.58934411 482.50470123 C5.74188435 482.51301088 7.89414704 482.50707367 10.04669189 482.50120544 C11.60448203 482.5042257 13.16227069 482.50811455 14.72005671 482.51279801 C19.00313545 482.52310317 23.28613071 482.52088978 27.56921637 482.51661742 C32.18760247 482.51415473 36.80596823 482.52315871 41.42434692 482.53065491 C50.47354906 482.54341709 59.52272154 482.54519367 68.57193116 482.54285464 C75.92681985 482.54107287 83.28169953 482.54281811 90.63658714 482.54707909 C91.68268646 482.54767428 92.72878577 482.54826946 93.80658507 482.54888269 C95.93163755 482.55009442 98.05669003 482.55130856 100.18174251 482.55252507 C120.11995504 482.56340665 140.05815066 482.5612353 159.99636414 482.55514022 C178.23920072 482.54997162 196.4819839 482.56122391 214.72480992 482.58023844 C233.45157741 482.59960788 252.17831962 482.60787434 270.90509719 482.60411519 C281.42069517 482.60220164 291.93624771 482.60470554 302.45183754 482.61882973 C311.40479803 482.63073317 320.35768509 482.63216013 329.31064657 482.62003956 C333.87869621 482.61414334 338.44661149 482.61307194 343.01465225 482.62504196 C347.19753016 482.63587531 351.38016112 482.63282782 355.56302734 482.61878028 C357.07512315 482.61612629 358.58723814 482.61852189 360.09931514 482.62651614 C372.18276206 483.06359624 372.18276206 483.06359624 382.65514594 477.85940248 C386.55017115 473.43045116 388.39614228 469.86072454 388.41062355 464.00063705 C388.41808904 462.93372061 388.42555454 461.86680416 388.43324625 460.76755691 C388.43131152 459.59635999 388.42937679 458.42516307 388.42738342 457.21847534 C388.43607203 455.35124892 388.43607203 455.35124892 388.44493616 453.44630075 C388.45901821 449.9892002 388.46416789 446.53229298 388.46558475 443.07517767 C388.46927541 439.34785485 388.4844292 435.62057677 388.49819946 431.89328003 C388.52048666 425.43486753 388.53549116 418.97647091 388.54556656 412.51802826 C388.56014444 403.18017968 388.58567875 393.84238642 388.61389785 384.50457028 C388.65938205 369.35504106 388.69599012 354.20550389 388.72703552 339.05593872 C388.7572144 324.33847658 388.79156162 309.62103393 388.83152771 294.90359497 C388.83398926 293.99659921 388.83645081 293.08960345 388.83898695 292.15512297 C388.85136142 287.60504765 388.86381798 283.05497257 388.87631536 278.50489759 C388.97990754 240.75012827 389.06910274 202.99533575 389.14891052 165.24050903 C390.30286316 164.71594116 391.4568158 164.19137329 392.64573669 163.65090942 C394.18211459 162.94284981 395.71831966 162.2344151 397.25437927 161.52566528 C398.01230774 161.18233154 398.77023621 160.8389978 399.5511322 160.48526001 C405.32118622 157.80958619 410.04745422 154.68269174 414.94969177 150.61160278 C417.14891052 149.24050903 417.14891052 149.24050903 419.44187927 149.52566528 C420.00519958 149.76156372 420.5685199 149.99746216 421.14891052 150.24050903 C421.27266052 151.20988403 421.39641052 152.17925903 421.52391052 153.17800903 C421.73016052 154.18863403 421.93641052 155.19925903 422.14891052 156.24050903 C422.80891052 156.57050903 423.46891052 156.90050903 424.14891052 157.24050903 C424.14891052 159.22050903 424.14891052 161.20050903 424.14891052 163.24050903 C423.15891052 163.57050903 422.16891052 163.90050903 421.14891052 164.24050903 C421.14891052 269.84050903 421.14891052 375.44050903 421.14891052 484.24050903 C420.48891052 484.57050903 419.82891052 484.90050903 419.14891052 485.24050903 C418.74161825 487.562075 418.40452376 489.89738773 418.14891052 492.24050903 C417.15891052 492.57050903 416.16891052 492.90050903 415.14891052 493.24050903 C415.14891052 494.89050903 415.14891052 496.54050903 415.14891052 498.24050903 C414.48891052 498.57050903 413.82891052 498.90050903 413.14891052 499.24050903 C412.01540519 501.25720731 412.01540519 501.25720731 411.14891052 503.24050903 C410.48891052 503.24050903 409.82891052 503.24050903 409.14891052 503.24050903 C409.14891052 503.90050903 409.14891052 504.56050903 409.14891052 505.24050903 C408.15891052 505.24050903 407.16891052 505.24050903 406.14891052 505.24050903 C406.14891052 505.90050903 406.14891052 506.56050903 406.14891052 507.24050903 C405.15891052 507.24050903 404.16891052 507.24050903 403.14891052 507.24050903 C403.14891052 507.90050903 403.14891052 508.56050903 403.14891052 509.24050903 C402.15891052 509.24050903 401.16891052 509.24050903 400.14891052 509.24050903 C400.14891052 509.90050903 400.14891052 510.56050903 400.14891052 511.24050903 C399.15891052 511.24050903 398.16891052 511.24050903 397.14891052 511.24050903 C397.14891052 511.90050903 397.14891052 512.56050903 397.14891052 513.24050903 C396.29426208 513.44546997 395.43961365 513.65043091 394.55906677 513.86160278 C393.45434021 514.13101685 392.34961365 514.40043091 391.21141052 514.67800903 C389.55818787 515.07826294 389.55818787 515.07826294 387.87156677 515.48660278 C385.25469799 515.97046628 385.25469799 515.97046628 384.14891052 517.24050903 C382.06714023 517.34025352 379.98191659 517.36791144 377.89775848 517.36914349 C377.23408178 517.37089652 376.57040507 517.37264956 375.88661695 517.37445572 C373.6348759 517.37915386 371.38319835 517.3766405 369.13145447 517.3742218 C367.51183376 517.37608788 365.89221351 517.37838777 364.27259398 517.38108712 C359.80000366 517.38723709 355.32743195 517.38706779 350.85483837 517.38589275 C346.03936661 517.38568953 341.22390096 517.39120004 336.40843201 517.39595032 C326.96397894 517.40427592 317.51953211 517.40700606 308.07507569 517.4075627 C300.39830598 517.40803714 292.72153834 517.41008832 285.04476929 517.41326332 C263.29328116 517.42207664 241.54179798 517.42668187 219.79030806 517.42593285 C218.61636172 517.42589289 217.44241537 517.42585293 216.2328949 517.42581177 C215.05751897 517.42577089 213.88214305 517.42573001 212.67114967 517.42568789 C193.63336441 517.42528166 174.59559896 517.43484342 155.55781943 517.44895013 C136.02321853 517.46331099 116.48862729 517.47022041 96.95402098 517.46935636 C85.98170862 517.46902419 75.00941699 517.4717796 64.03710938 517.48253441 C54.69140104 517.49163579 45.34572283 517.49381779 36.00001198 517.48702499 C31.23139152 517.48375739 26.46282885 517.48371164 21.69421387 517.49237823 C17.32674932 517.50023403 12.9593885 517.49882117 8.59192652 517.4900941 C7.01374435 517.48855704 5.43555448 517.49038306 3.8573814 517.49595418 C-3.95700448 517.52170755 -11.27870805 517.37188314 -18.85108948 515.24050903 C-18.85108948 514.58050903 -18.85108948 513.92050903 -18.85108948 513.24050903 C-19.96483948 513.30238403 -19.96483948 513.30238403 -21.10108948 513.36550903 C-23.938679 513.23652769 -25.43882885 512.66999681 -27.85108948 511.24050903 C-27.85108948 510.58050903 -27.85108948 509.92050903 -27.85108948 509.24050903 C-28.84108948 509.24050903 -29.83108948 509.24050903 -30.85108948 509.24050903 C-30.85108948 508.58050903 -30.85108948 507.92050903 -30.85108948 507.24050903 C-31.84108948 507.24050903 -32.83108948 507.24050903 -33.85108948 507.24050903 C-33.85108948 506.58050903 -33.85108948 505.92050903 -33.85108948 505.24050903 C-34.84108948 504.91050903 -35.83108948 504.58050903 -36.85108948 504.24050903 C-41.63380127 499.29287615 -46.66518206 491.86147856 -47.02296448 484.89285278 C-46.96624573 484.01757935 -46.90952698 483.14230591 -46.85108948 482.24050903 C-47.51108948 482.24050903 -48.17108948 482.24050903 -48.85108948 482.24050903 C-50.05273656 478.48197682 -49.99005417 474.77175204 -49.97693062 470.86943722 C-49.97838406 470.12114783 -49.9798375 469.37285845 -49.98133498 468.60189363 C-49.98500062 466.08044652 -49.98150594 463.55905964 -49.97807312 461.03761292 C-49.97922471 459.21726149 -49.98081249 457.3969103 -49.98280036 455.5765596 C-49.9869884 450.56328852 -49.98490535 445.55003638 -49.98181415 440.53676522 C-49.97955816 435.13454503 -49.98304064 429.73232818 -49.98579407 424.33010864 C-49.99024852 413.7430589 -49.98927676 403.15601623 -49.98638143 392.5689662 C-49.98412625 383.96782708 -49.98381537 375.36668995 -49.98490524 366.76555061 C-49.98505848 365.54302443 -49.98521171 364.32049826 -49.98536959 363.06092583 C-49.9856893 360.57767216 -49.98601351 358.09441849 -49.98634218 355.61116482 C-49.98919599 332.30767808 -49.98591143 309.00419527 -49.98054181 285.70070917 C-49.9760733 265.68801323 -49.97685028 245.67532407 -49.98146057 225.66262817 C-49.98680711 202.44295995 -49.9889219 179.22329516 -49.98584831 156.00362641 C-49.98552975 153.52963483 -49.98521538 151.05564326 -49.98490524 148.58165169 C-49.98475097 147.36428115 -49.98459669 146.14691061 -49.98443774 144.89265005 C-49.98357287 136.29737924 -49.98503482 127.70211061 -49.9873848 119.10684013 C-49.99018385 108.63858478 -49.98944227 98.17033693 -49.98410405 87.70208245 C-49.98146856 82.35700047 -49.98045944 77.01193103 -49.9837532 71.66684914 C-49.98671922 66.77987609 -49.98511819 61.89292725 -49.97977565 57.00595642 C-49.97865279 55.23214494 -49.97923978 53.45833144 -49.98165144 51.68452125 C-49.98466528 49.28489777 -49.98160059 46.88535868 -49.97693062 44.48573971 C-49.97927178 43.7872478 -49.98161295 43.08875589 -49.98402506 42.36909756 C-49.97226194 39.37205302 -49.80778508 37.11059585 -48.85108948 34.24050903 C-48.19108948 34.24050903 -47.53108948 34.24050903 -46.85108948 34.24050903 C-46.97483948 33.29175903 -47.09858948 32.34300903 -47.22608948 31.36550903 C-47.25955239 25.91105427 -44.02951064 21.47067054 -40.85108948 17.24050903 C-39.86108948 16.58050903 -38.87108948 15.92050903 -37.85108948 15.24050903 C-37.52108948 14.25050903 -37.19108948 13.26050903 -36.85108948 12.24050903 C-34.23390198 10.19754028 -34.23390198 10.19754028 -30.97608948 8.05300903 C-29.9061676 7.33757935 -28.83624573 6.62214966 -27.73390198 5.88504028 C-24.85108948 4.24050903 -24.85108948 4.24050903 -21.85108948 4.24050903 C-21.85108948 3.58050903 -21.85108948 2.92050903 -21.85108948 2.24050903 C-14.46164164 0.27168263 -7.62569301 -0.03764888 0 0 Z " fill="#0B3C87" transform="translate(87.85108947753906,22.759490966796875)"/>
<path d="M0 0 C62.7 0 125.4 0 190 0 C190 51.48 190 102.96 190 156 C127.3 156 64.6 156 0 156 C0 104.52 0 53.04 0 0 Z " fill="#A1EAFD" transform="translate(157,248)"/>
<path d="M0 0 C1.09570312 0.00902344 2.19140625 0.01804687 3.3203125 0.02734375 C4.58488281 0.04474609 4.58488281 0.04474609 5.875 0.0625 C5.875 0.7225 5.875 1.3825 5.875 2.0625 C10.825 2.0625 15.775 2.0625 20.875 2.0625 C20.875 2.7225 20.875 3.3825 20.875 4.0625 C22.855 4.0625 24.835 4.0625 26.875 4.0625 C26.875 4.7225 26.875 5.3825 26.875 6.0625 C28.855 6.0625 30.835 6.0625 32.875 6.0625 C32.875 7.0525 32.875 8.0425 32.875 9.0625 C33.75027344 9.33320313 34.62554687 9.60390625 35.52734375 9.8828125 C53.41027523 16.18461566 67.94612949 31.78479233 76.18994141 48.45483398 C86.45062466 70.06560054 88.88059063 95.20443202 80.875 118.0625 C80.524375 119.09890625 80.17375 120.1353125 79.8125 121.203125 C71.86505754 142.28592374 56.24589984 157.92177932 36.30078125 167.83984375 C14.32665592 177.72699145 -9.08751862 179.00972543 -31.8125 170.8125 C-54.71588993 161.3932356 -70.75379986 144.92698053 -80.7734375 122.4765625 C-89.70516536 99.91491468 -89.74235666 75.59432407 -80.5 53.12109375 C-73.75028127 38.10680463 -63.33717232 23.87004341 -49.125 15.0625 C-48.465 15.0625 -47.805 15.0625 -47.125 15.0625 C-47.125 14.0725 -47.125 13.0825 -47.125 12.0625 C-46.320625 11.815 -45.51625 11.5675 -44.6875 11.3125 C-39.68989102 9.55895299 -34.75137098 7.52386596 -30.1171875 4.9453125 C-27.86240174 3.94613293 -26.32515226 3.85582826 -23.875 3.9375 C-22.6375 3.97875 -21.4 4.02 -20.125 4.0625 C-20.125 3.4025 -20.125 2.7425 -20.125 2.0625 C-19.28195312 2.00191406 -18.43890625 1.94132813 -17.5703125 1.87890625 C-16.47460938 1.79511719 -15.37890625 1.71132812 -14.25 1.625 C-13.15945313 1.54378906 -12.06890625 1.46257813 -10.9453125 1.37890625 C-7.02425951 0.93900972 -4.11124252 -0.04373662 0 0 Z " fill="#01A7D5" transform="translate(446.125,8.9375)"/>
<path d="M0 0 C1.1379794 -0.0034177 2.27595881 -0.0068354 3.44842243 -0.01035666 C7.25184333 -0.01693181 11.05455454 0.00503581 14.85791016 0.0269165 C17.58812403 0.03027453 20.31832417 0.02758699 23.04853821 0.02514648 C28.92146109 0.02305289 34.7942057 0.03556287 40.66708374 0.05809784 C49.15816372 0.09065791 57.64915783 0.10102894 66.14029348 0.10604981 C79.91779655 0.11479619 93.6952047 0.1413939 107.47265625 0.17926025 C120.85318529 0.21599737 134.2336885 0.2443008 147.61425781 0.2612915 C148.4395538 0.2623424 149.26484979 0.26339329 150.11515474 0.26447603 C154.25557724 0.26969632 158.39599993 0.27475112 162.53642273 0.27972364 C196.86500768 0.32116522 231.19347992 0.39159571 265.52197266 0.48101807 C265.21509632 1.30288227 265.21509632 1.30288227 264.90202045 2.14134979 C263.96926145 4.64364222 263.04014404 7.14727192 262.11108398 9.65093994 C261.78916328 10.51289978 261.46724258 11.37485962 261.13556671 12.26293945 C257.12087397 23.10129452 256.22148396 32.40859698 256.33447266 43.98101807 C256.33511719 45.23527588 256.33576172 46.48953369 256.33642578 47.78179932 C256.36955339 54.81221433 256.81698582 61.43114971 257.52197266 68.48101807 C163.80197266 68.48101807 70.08197266 68.48101807 -26.47802734 68.48101807 C-26.47802734 11.67020726 -26.47802734 11.67020726 -19.47802734 4.48101807 C-13.25482342 0.1666953 -7.38179617 -0.08156361 0 0 Z " fill="#6DB3F3" transform="translate(94.47802734375,53.51898193359375)"/>
<path d="M0 0 C9.57 0 19.14 0 29 0 C30.32 2.31 31.64 4.62 33 7 C37.81419627 12.54778808 43.57307012 15.5040369 50.82421875 16.31640625 C60.53699595 16.70193262 68.12596131 14.18068729 75.4296875 7.7578125 C77.22561103 5.9379935 77.22561103 5.9379935 78.328125 2.859375 C81.57040567 -0.61043413 82.6849653 -0.5260729 87.3046875 -0.8671875 C89.82788961 -0.90175191 92.35171722 -0.90306482 94.875 -0.875 C96.14214844 -0.91496094 97.40929687 -0.95492187 98.71484375 -0.99609375 C107.80383821 -0.98653645 107.80383821 -0.98653645 111.13842773 1.76367188 C112.63722706 3.77823383 113.81395457 5.79246009 115 8 C120.59493034 13.44371601 127.16744156 16.22035779 134.9375 16.5 C143.67330487 16.177276 150.83751026 13.16248974 157 7 C157.42224854 6.11973145 157.42224854 6.11973145 157.85302734 5.22167969 C158.99740888 2.90620426 159.9503471 1.59934047 162 0 C166.79338861 -0.89805966 171.4573336 -0.6559673 176.3125 -0.4375 C183.0878125 -0.2209375 183.0878125 -0.2209375 190 0 C190 15.84 190 31.68 190 48 C127.3 48 64.6 48 0 48 C0 32.16 0 16.32 0 0 Z " fill="#A1EBFE" transform="translate(157,187)"/>
<path d="M0 0 C62.37 0 124.74 0 189 0 C189 15.51 189 31.02 189 47 C182.5340625 47.309375 182.5340625 47.309375 175.9375 47.625 C173.91870728 47.76156006 173.91870728 47.76156006 171.85913086 47.90087891 C163.1669746 48.10210125 163.1669746 48.10210125 159.70751953 44.83496094 C157.87890625 42.1484375 157.87890625 42.1484375 156.43188477 39.45849609 C153.55238641 34.51449807 148.71884294 32.65628549 143.5625 30.6875 C135.70777526 29.17167593 128.32644012 29.54889127 121 33 C115.17552426 37.07803325 112.22329496 40.55341008 109 47 C99.76 47 90.52 47 81 47 C78 41 78 41 77.0625 38.75 C75.6935715 36.49529423 74.37322638 36.10807171 72 35 C71.34 34.65839844 70.68 34.31679688 70 33.96484375 C69.34 33.62582031 68.68 33.28679687 68 32.9375 C67.34 32.59589844 66.68 32.25429688 66 31.90234375 C58.80723433 28.65717018 50.83899275 29.40713343 43.49609375 31.82421875 C36.36663863 35.18253799 32.46763103 40.06473795 29 47 C19.43 47 9.86 47 0 47 C0 31.49 0 15.98 0 0 Z " fill="#A3EBFD" transform="translate(157,419)"/>
<path d="M0 0 C1.98 0 3.96 0 6 0 C6 0.66 6 1.32 6 2 C6.99 2 7.98 2 9 2 C9 2.66 9 3.32 9 4 C10.98 4 12.96 4 15 4 C15 4.66 15 5.32 15 6 C15.99 6 16.98 6 18 6 C18 6.66 18 7.32 18 8 C18.99 8 19.98 8 21 8 C21 8.66 21 9.32 21 10 C21.99 10 22.98 10 24 10 C24 10.99 24 11.98 24 13 C24.99 13.33 25.98 13.66 27 14 C27 14.66 27 15.32 27 16 C27.99 16 28.98 16 30 16 C30 16.66 30 17.32 30 18 C30.99 18.33 31.98 18.66 33 19 C33 19.99 33 20.98 33 22 C33.99 22 34.98 22 36 22 C36 23.32 36 24.64 36 26 C36.99 26 37.98 26 39 26 C39 27.32 39 28.64 39 30 C39.99 30 40.98 30 42 30 C42 31.32 42 32.64 42 34 C42.99 34 43.98 34 45 34 C45 35.98 45 37.96 45 40 C45.99 40 46.98 40 48 40 C48 41.98 48 43.96 48 46 C48.99 46.33 49.98 46.66 51 47 C51 49.97 51 52.94 51 56 C51.99 56 52.98 56 54 56 C54 59.63 54 63.26 54 67 C54.99 67.33 55.98 67.66 57 68 C57 76.58 57 85.16 57 94 C56.01 94 55.02 94 54 94 C54 98.62 54 103.24 54 108 C53.01 108.33 52.02 108.66 51 109 C51 111.97 51 114.94 51 118 C50.01 118 49.02 118 48 118 C48 120.31 48 122.62 48 125 C47.01 125.33 46.02 125.66 45 126 C45 127.65 45 129.3 45 131 C44.01 131 43.02 131 42 131 C42 132.32 42 133.64 42 135 C41.01 135 40.02 135 39 135 C39 136.32 39 137.64 39 139 C38.01 139 37.02 139 36 139 C35.67 140.32 35.34 141.64 35 143 C34.34 143 33.68 143 33 143 C32.67 144.32 32.34 145.64 32 147 C31.34 147 30.68 147 30 147 C30 147.99 30 148.98 30 150 C29.34 150.33 28.68 150.66 28 151 C27.72285156 151.76699219 27.44570313 152.53398437 27.16015625 153.32421875 C23.01488286 162.88486613 7.15318119 168.35859358 -2 172 C-25.50912889 180.5261778 -51.66929022 179.07976904 -74.32470703 168.84057617 C-98.83994031 157.15691518 -114.69585105 136.79395083 -124.67578125 112.05859375 C-128.27173701 101.67920307 -129.52999254 91.6373054 -129.4375 80.6875 C-129.42505249 78.77674683 -129.42505249 78.77674683 -129.41235352 76.82739258 C-129.24088752 67.26129861 -128.33909906 58.98988209 -125 50 C-124.75862305 49.34290039 -124.51724609 48.68580078 -124.26855469 48.00878906 C-118.15569847 31.76166304 -107.93947863 15.36149674 -93 6 C-93 6.66 -93 7.32 -93 8 C-91.58297487 7.85769192 -90.1663904 7.71099254 -88.75 7.5625 C-87.96109375 7.48128906 -87.1721875 7.40007813 -86.359375 7.31640625 C-84.17635361 7.02365007 -82.1226818 6.57935581 -80 6 C-80.69738281 6.54914062 -81.39476562 7.09828125 -82.11328125 7.6640625 C-102.13658782 23.86695469 -116.08822138 43.62760508 -119 70 C-120.38021687 95.48927031 -114.51017749 119.60418642 -97.45922852 139.32495117 C-82.67195022 155.63039996 -61.42045702 165.95657542 -39.4140625 167.203125 C-14.5191022 167.51110389 8.17156013 160.32226455 26.31640625 142.6796875 C27.20199219 141.79539063 28.08757812 140.91109375 29 140 C29.66902344 139.34257812 30.33804688 138.68515625 31.02734375 138.0078125 C45.38950073 122.83147429 51.4156495 101.67958072 51.3125 81.25 C51.30758545 80.10128418 51.3026709 78.95256836 51.29760742 77.76904297 C51.11807327 64.76340467 48.63904472 53.79219038 43 42 C42.55785156 41.07445312 42.11570312 40.14890625 41.66015625 39.1953125 C33.83898377 23.8996123 22.07712538 12.76383763 7.1015625 4.7265625 C4.53652698 3.29867119 2.28252824 1.83276898 0 0 Z " fill="#F6FAFC" transform="translate(479,17)"/>
<path d="M0 0 C2.91587943 1.84672364 5.43125021 3.86250043 7 7 C7.54615831 12.68004643 6.51144022 15.70509328 3 20 C2.35546875 20.80308594 1.7109375 21.60617188 1.046875 22.43359375 C-1.28299989 25.30520528 -3.64094251 28.15233513 -6 31 C-7.438089 32.77035505 -8.87559295 34.54118549 -10.3125 36.3125 C-14.2634006 41.14977656 -18.33258475 45.87501769 -22.41943359 50.59692383 C-25.41340891 54.07948943 -28.29845808 57.61974183 -31.09863281 61.25976562 C-35.44722079 66.91197844 -39.9206931 72.45189029 -44.625 77.8125 C-45.12700928 78.41771484 -45.62901855 79.02292969 -46.14624023 79.64648438 C-48.86334409 82.6638376 -51.27864738 84.49745167 -55.2734375 85.44921875 C-59.53055131 85.60871613 -61.50804265 84.22818502 -64.65625 81.453125 C-65.95997392 80.15041016 -67.26201127 78.84559777 -68.53613281 77.51391602 C-70.11936186 75.87655722 -71.7444478 74.29113068 -73.3828125 72.70898438 C-76.48424914 69.70973986 -79.55190238 66.67877353 -82.60742188 63.6328125 C-84.51772883 61.73236265 -86.43845637 59.84284089 -88.359375 57.953125 C-89.58398688 56.73503169 -90.80796883 55.51630468 -92.03125 54.296875 C-92.60202271 53.7384491 -93.17279541 53.18002319 -93.76086426 52.60467529 C-97.93847665 48.40332466 -100 45.46212186 -100 39.5 C-98.68783783 34.90743241 -97.04696382 33.47314456 -93 31 C-89.5485796 30.29693288 -87.36338136 30.20271663 -84.26074219 32.01708984 C-78.17647139 36.58756304 -72.93324235 41.87564385 -67.625 47.3125 C-65.84855426 49.12325478 -64.070017 50.93196084 -62.2890625 52.73828125 C-61.51256348 53.53274658 -60.73606445 54.32721191 -59.93603516 55.14575195 C-58.13047712 57.05796484 -58.13047712 57.05796484 -56 58 C-55.74863281 57.43796875 -55.49726563 56.8759375 -55.23828125 56.296875 C-53.81166901 53.65066681 -52.11798132 51.55654912 -50.1875 49.25 C-48.98673828 47.80367187 -48.98673828 47.80367187 -47.76171875 46.328125 C-47.32134277 45.79896484 -46.8809668 45.26980469 -46.42724609 44.72460938 C-43.76083209 41.50265444 -41.13349892 38.24886328 -38.5 35 C-34.05346568 29.52285028 -29.60001768 24.05158404 -25.125 18.59765625 C-23.61876024 16.75638889 -22.11944637 14.90944592 -20.625 13.05859375 C-19.84125 12.09050781 -19.0575 11.12242188 -18.25 10.125 C-17.20585937 8.82949219 -17.20585937 8.82949219 -16.140625 7.5078125 C-8.11569103 -1.89366124 -8.11569103 -1.89366124 0 0 Z " fill="#FBFDFE" transform="translate(493,58)"/>
<path d="M0 0 C0.99 0.33 1.98 0.66 3 1 C3.12375 1.969375 3.2475 2.93875 3.375 3.9375 C3.58125 4.948125 3.7875 5.95875 4 7 C4.66 7.33 5.32 7.66 6 8 C6 9.98 6 11.96 6 14 C4.515 14.495 4.515 14.495 3 15 C3 120.6 3 226.2 3 335 C2.34 335.33 1.68 335.66 1 336 C0.59270772 338.32156597 0.25561323 340.6568787 0 343 C-0.99 343.33 -1.98 343.66 -3 344 C-3 345.65 -3 347.3 -3 349 C-3.66 349.33 -4.32 349.66 -5 350 C-6.13350534 352.01669827 -6.13350534 352.01669827 -7 354 C-7.66 354 -8.32 354 -9 354 C-9 354.66 -9 355.32 -9 356 C-9.99 356 -10.98 356 -12 356 C-12 356.66 -12 357.32 -12 358 C-12.99 358 -13.98 358 -15 358 C-15 358.66 -15 359.32 -15 360 C-15.99 360 -16.98 360 -18 360 C-18 360.66 -18 361.32 -18 362 C-18.99 362 -19.98 362 -21 362 C-21 362.66 -21 363.32 -21 364 C-21.85464844 364.20496094 -22.70929688 364.40992188 -23.58984375 364.62109375 C-24.69457031 364.89050781 -25.79929687 365.15992188 -26.9375 365.4375 C-28.59072266 365.83775391 -28.59072266 365.83775391 -30.27734375 366.24609375 C-32.89421254 366.72995725 -32.89421254 366.72995725 -34 368 C-36.08177029 368.09974448 -38.16699394 368.1274024 -40.25115204 368.12863445 C-41.2466671 368.13126401 -41.2466671 368.13126401 -42.26229358 368.13394669 C-44.51403463 368.13864483 -46.76571217 368.13613146 -49.01745605 368.13371277 C-50.63707676 368.13557885 -52.25669702 368.13787873 -53.87631655 368.14057809 C-58.34890686 368.14672805 -62.82147857 368.14655875 -67.29407215 368.14538372 C-72.10954391 368.1451805 -76.92500957 368.150691 -81.74047852 368.15544128 C-91.18493158 368.16376688 -100.62937841 368.16649702 -110.07383484 368.16705366 C-117.75060454 368.16752811 -125.42737218 368.16957929 -133.10414124 368.17275429 C-154.85562936 368.18156761 -176.60711254 368.18617284 -198.35860246 368.18542381 C-199.53254881 368.18538386 -200.70649515 368.1853439 -201.91601562 368.18530273 C-203.09139155 368.18526185 -204.26676747 368.18522097 -205.47776085 368.18517885 C-224.51554611 368.18477263 -243.55331156 368.19433438 -262.5910911 368.2084411 C-282.12569199 368.22280196 -301.66028323 368.22971138 -321.19488955 368.22884732 C-332.16720191 368.22851516 -343.13949353 368.23127057 -354.11180115 368.24202538 C-363.45750948 368.25112676 -372.8031877 368.25330875 -382.14889854 368.24651595 C-386.91751901 368.24324836 -391.68608167 368.24320261 -396.45469666 368.2518692 C-400.8221612 368.25972499 -405.18952202 368.25831213 -409.55698401 368.24958507 C-411.13516617 368.248048 -412.71335604 368.24987402 -414.29152912 368.25544515 C-422.105915 368.28119852 -429.42761857 368.1313741 -437 366 C-437 365.34 -437 364.68 -437 364 C-438.11375 364.061875 -438.11375 364.061875 -439.25 364.125 C-442.08758952 363.99601866 -443.58773938 363.42948778 -446 362 C-446 361.34 -446 360.68 -446 360 C-446.99 360 -447.98 360 -449 360 C-449 359.34 -449 358.68 -449 358 C-449.99 358 -450.98 358 -452 358 C-452 357.34 -452 356.68 -452 356 C-452.99 355.67 -453.98 355.34 -455 355 C-462 347.125 -462 347.125 -462 342 C-461.34 342 -460.68 342 -460 342 C-459.484375 342.825 -458.96875 343.65 -458.4375 344.5 C-452.42946406 353.87785684 -442.32802942 359.97967666 -431.65108073 362.57286108 C-425.59272727 363.54897567 -419.39067357 363.27694454 -413.26811218 363.26069641 C-411.65624862 363.26371895 -410.04438649 363.26760894 -408.43252689 363.27228898 C-404.01379827 363.28256463 -399.59515083 363.28038825 -395.17641556 363.27610838 C-390.40669451 363.27364037 -385.63699296 363.2826563 -380.86727905 363.29014587 C-371.52671473 363.30289302 -362.18617916 363.30468652 -352.8456076 363.30234561 C-345.25244885 363.30056222 -337.65929883 363.30231255 -330.06614113 363.30657005 C-328.98523476 363.30716524 -327.90432838 363.30776043 -326.79066727 363.30837366 C-324.59475558 363.30958542 -322.3988439 363.31079955 -320.20293222 363.31201603 C-299.61079539 363.32289175 -279.01867494 363.320729 -258.42653719 363.31463119 C-239.59423152 363.30946266 -220.76197759 363.32071573 -201.92968216 363.33972941 C-182.58694861 363.35910853 -163.24423955 363.36736363 -143.90149623 363.36360615 C-133.04435163 363.36169414 -122.18725105 363.36418168 -111.33011436 363.37832069 C-102.0867266 363.39023642 -92.84340996 363.39163723 -83.60002121 363.37953053 C-78.88576131 363.37364307 -74.17163151 363.37253875 -69.45738029 363.38453293 C-65.13753674 363.39539572 -60.81793183 363.39228365 -56.49809942 363.37827124 C-54.93960683 363.3756254 -53.38109551 363.3779873 -51.82262131 363.38600711 C-36.90768902 363.45740004 -23.95235849 361.04190798 -12.625 350.7109375 C-2.78317412 340.34863044 -0.39430639 327.97430995 -0.48101807 314.10479736 C-0.47512928 312.74149784 -0.46749523 311.37820495 -0.458287 310.01492381 C-0.43817708 306.30220111 -0.4425408 302.58986379 -0.45119452 298.87711191 C-0.45616531 294.86088245 -0.43802243 290.84474661 -0.42277527 286.82855225 C-0.39952277 279.88133803 -0.39071208 272.93422802 -0.39188385 265.98697662 C-0.39355686 255.94260863 -0.37318002 245.89837908 -0.34752855 235.8540481 C-0.30649856 219.55537475 -0.28314761 203.2567264 -0.27099609 186.95800781 C-0.25915834 171.13116048 -0.23894373 155.30436015 -0.20751953 139.47753906 C-0.20558343 138.50095719 -0.20364733 137.52437533 -0.20165256 136.51820007 C-0.19188761 131.61867203 -0.18195857 126.71914434 -0.17194796 121.81961679 C-0.08919365 81.21310056 -0.03516515 40.60658356 0 0 Z " fill="#E5E9EE" transform="translate(506,172)"/>
<path d="M0 0 C15.84 0 31.68 0 48 0 C48 16.83 48 33.66 48 51 C32.16 51 16.32 51 0 51 C0 34.17 0 17.34 0 0 Z " fill="#0B3C88" transform="translate(191,331)"/>
<path d="M0 0 C15.84 0 31.68 0 48 0 C48 15.18 48 30.36 48 46 C32.16 46 16.32 46 0 46 C0 30.82 0 15.64 0 0 Z " fill="#093986" transform="translate(191,272)"/>
<path d="M0 0 C4.62 0 9.24 0 14 0 C14 14.19 14 28.38 14 43 C20.27 43 26.54 43 33 43 C33 38.71 33 34.42 33 30 C37.62 30 42.24 30 47 30 C47 24.39 47 18.78 47 13 C40.73 13 34.46 13 28 13 C28 8.71 28 4.42 28 0 C38.89 0 49.78 0 61 0 C61 14.85 61 29.7 61 45 C51.43 45 41.86 45 32 45 C32 49.29 32 53.58 32 58 C21.44 58 10.88 58 0 58 C0 38.86 0 19.72 0 0 Z " fill="#0A3C88" transform="translate(252,272)"/>
<path d="M0 0 C0.69641602 -0.00700928 1.39283203 -0.01401855 2.11035156 -0.02124023 C4.40730932 -0.03881383 6.70303021 -0.02720107 9 -0.01367188 C10.59896073 -0.01636701 12.19791987 -0.0202496 13.796875 -0.02526855 C17.14599226 -0.03116269 20.49468243 -0.0226038 23.84375 -0.00390625 C28.13478591 0.01888377 32.42482111 0.00576017 36.71582031 -0.01819611 C40.01700366 -0.03265667 43.31795011 -0.02804703 46.61914062 -0.01768494 C48.20117308 -0.01501834 49.78322711 -0.0182851 51.36523438 -0.02760315 C53.57740163 -0.03777366 55.787953 -0.02226378 58 0 C59.8871875 0.00477356 59.8871875 0.00477356 61.8125 0.00964355 C65.56130214 0.60702276 66.74738144 1.51759546 69 4.51757812 C69.49609375 6.99023437 69.49609375 6.99023437 69.4375 9.58007812 C69.43621094 10.43730469 69.43492187 11.29453125 69.43359375 12.17773438 C68.89427307 15.08812258 68.3972943 15.7919547 66 17.51757812 C62.85009766 17.90525818 62.85009766 17.90525818 58.9140625 17.92163086 C57.83798737 17.93192574 57.83798737 17.93192574 56.74017334 17.94242859 C54.36824773 17.9607341 51.9969811 17.95685439 49.625 17.95117188 C47.9773741 17.95573157 46.32975011 17.9610365 44.68212891 17.96705627 C41.22876255 17.97599447 37.77562737 17.97355592 34.32226562 17.96362305 C29.8932645 17.95212628 25.4650598 17.97235146 21.03616333 18.00154018 C17.63381876 18.01987075 14.23166621 18.01961617 10.82928467 18.01390266 C9.19617596 18.01374909 7.56305453 18.0198228 5.92999268 18.03219414 C3.64812984 18.04704568 1.36775328 18.03647264 -0.9140625 18.01928711 C-2.2129541 18.01912094 -3.5118457 18.01895477 -4.85009766 18.01878357 C-8 17.51757812 -8 17.51757812 -9.91577148 15.62489319 C-11.13908122 13.24725878 -11.43293625 11.68280887 -11.4375 9.01757812 C-11.45683594 8.26476562 -11.47617188 7.51195313 -11.49609375 6.73632812 C-10.11647932 0.56608405 -5.58375726 0.01412387 0 0 Z " fill="#083985" transform="translate(102,77.482421875)"/>
<path d="M0 0 C0.66 0 1.32 0 2 0 C2.515625 0.825 3.03125 1.65 3.5625 2.5 C9.4542443 11.69633888 19.19320065 17.6447559 29.625 20.3125 C30.73875 20.539375 31.8525 20.76625 33 21 C33 21.66 33 22.32 33 23 C163.68 22.67 294.36 22.34 429 22 C428.67 23.32 428.34 24.64 428 26 C377.95992939 26.04577096 327.91986089 26.08101592 277.87977347 26.10213066 C271.97299022 26.10463209 266.06620702 26.10722074 260.15942383 26.10986328 C258.9834824 26.1103879 257.80754098 26.11091252 256.59596496 26.11145304 C237.5516517 26.12015725 218.50735051 26.13592733 199.46304441 26.15430559 C179.92395729 26.17300417 160.38487649 26.18411664 140.84578079 26.18817699 C128.78772049 26.19092213 116.7296943 26.19959464 104.6716445 26.21583293 C96.40463076 26.22639928 88.13763466 26.22960141 79.87061466 26.22700275 C75.09997357 26.22572093 70.3293921 26.22769541 65.5587616 26.23841095 C61.18941048 26.24815347 56.82015901 26.24862837 52.45080327 26.24179779 C50.87191673 26.24095374 49.29302393 26.24348229 47.71414966 26.24976636 C39.89736415 26.27906348 32.57464904 26.13317957 25 24 C25 23.34 25 22.68 25 22 C24.2575 22.04125 23.515 22.0825 22.75 22.125 C19.91241048 21.99601866 18.41226062 21.42948778 16 20 C16 19.34 16 18.68 16 18 C15.01 18 14.02 18 13 18 C13 17.34 13 16.68 13 16 C12.01 16 11.02 16 10 16 C10 15.34 10 14.68 10 14 C9.01 13.67 8.02 13.34 7 13 C0 5.125 0 5.125 0 0 Z " fill="#B0B0B0" transform="translate(44,514)"/>
<path d="M0 0 C62.7 0 125.4 0 190 0 C190 51.48 190 102.96 190 156 C127.3 156 64.6 156 0 156 C0 104.52 0 53.04 0 0 Z M1 2 C1 52.49 1 102.98 1 155 C62.71 155 124.42 155 188 155 C188 104.51 188 54.02 188 2 C126.29 2 64.58 2 1 2 Z " fill="#AAE5F2" transform="translate(157,248)"/>
<path d="M0 0 C4.62 0 9.24 0 14 0 C14 9.24 14 18.48 14 28 C8.39 28 2.78 28 -3 28 C-3 31.63 -3 35.26 -3 39 C2.28 39 7.56 39 13 39 C13 42.3 13 45.6 13 49 C2.44 49 -8.12 49 -19 49 C-19 41.41 -19 33.82 -19 26 C-12.73 26 -6.46 26 0 26 C0 17.42 0 8.84 0 0 Z " fill="#073381" transform="translate(299,333)"/>
<path d="M0 0 C9.24 0 18.48 0 28 0 C28 4.62 28 9.24 28 14 C23.38 14 18.76 14 14 14 C14 21.59 14 29.18 14 37 C9.38 37 4.76 37 0 37 C0 24.79 0 12.58 0 0 Z " fill="#083784" transform="translate(252,345)"/>
<path d="M0 0 C0.76171509 -0.0038269 1.52343018 -0.00765381 2.30822754 -0.01159668 C3.91529668 -0.01431313 5.52241024 -0.00697044 7.12939453 0.00976562 C9.58596587 0.03118214 12.03961311 0.00995822 14.49609375 -0.015625 C16.05990227 -0.01298167 17.62370898 -0.00785658 19.1875 0 C20.28608337 -0.01214539 20.28608337 -0.01214539 21.40686035 -0.02453613 C24.874803 0.03906415 26.76432241 0.27999167 29.55688477 2.40991211 C31.43101679 4.99677996 31.60294964 6.42462607 31.53125 9.59375 C31.52996094 10.45097656 31.52867187 11.30820313 31.52734375 12.19140625 C30.98020779 15.14396875 30.56759268 15.81779611 28.09375 17.53125 C25.25858182 17.82955052 22.64762076 17.95163555 19.8125 17.9296875 C18.5976593 17.93399277 18.5976593 17.93399277 17.35827637 17.93838501 C15.64688416 17.94042542 13.93546862 17.93489709 12.22412109 17.92236328 C9.6033111 17.90630857 6.98404323 17.92221194 4.36328125 17.94140625 C2.70051743 17.93942381 1.03775456 17.93558013 -0.625 17.9296875 C-1.40943481 17.93576019 -2.19386963 17.94183289 -3.0020752 17.9480896 C-8.40536516 17.87817711 -8.40536516 17.87817711 -10.89672852 16.15258789 C-12.29572818 13.90573015 -12.33978933 12.22759391 -12.34375 9.59375 C-12.36308594 8.73910156 -12.38242188 7.88445312 -12.40234375 7.00390625 C-11.05465275 0.28667472 -5.91242533 -0.0653648 0 0 Z " fill="#083986" transform="translate(202.90625,77.46875)"/>
<path d="M0 0 C9.24 0 18.48 0 28 0 C27.67 0.66 27.34 1.32 27 2 C14.13 1.505 14.13 1.505 1 1 C1 15.85 1 30.7 1 46 C62.71 46 124.42 46 188 46 C188 31.15 188 16.3 188 1 C179.42 1 170.84 1 162 1 C162 0.67 162 0.34 162 0 C171.24 0 180.48 0 190 0 C190 15.84 190 31.68 190 48 C127.3 48 64.6 48 0 48 C0 32.16 0 16.32 0 0 Z " fill="#A5E2F1" transform="translate(157,187)"/>
<path d="M0 0 C0.66 0 1.32 0 2 0 C2.12375 0.969375 2.2475 1.93875 2.375 2.9375 C2.684375 4.4534375 2.684375 4.4534375 3 6 C3.66 6.33 4.32 6.66 5 7 C5 8.98 5 10.96 5 13 C4.01 13.33 3.02 13.66 2 14 C2.00184359 15.29689695 2.00368717 16.59379391 2.00558662 17.92999077 C2.04886654 48.68925602 2.08186308 79.44851308 2.10213066 110.20780145 C2.10463219 113.99058514 2.10722082 117.77336876 2.10986328 121.55615234 C2.1103879 122.30926265 2.11091252 123.06237295 2.11145304 123.83830477 C2.12016474 136.04576556 2.1359389 148.25320758 2.15430559 160.46065722 C2.17298341 172.97894308 2.18411223 185.49721909 2.18817699 198.01551831 C2.19092646 205.74510804 2.19962228 213.47464475 2.21583293 221.20421816 C2.22761656 227.1230242 2.22891672 233.04180275 2.22621536 238.96062088 C2.22676802 241.39474566 2.2307783 243.82887235 2.23841095 246.26298523 C2.2482855 249.57293116 2.24599643 252.88264573 2.24050903 256.19259644 C2.24633472 257.16728972 2.2521604 258.14198301 2.25816262 259.14621246 C2.25418052 260.02801024 2.25019842 260.90980802 2.24609566 261.81832695 C2.2468551 262.5830837 2.24761454 263.34784044 2.24839699 264.13577163 C2 266 2 266 0 268 C0 179.56 0 91.12 0 0 Z " fill="#FCFCFC" transform="translate(507,173)"/>
<path d="M0 0 C6.6 0 13.2 0 20 0 C20 7.26 20 14.52 20 22 C13.4 22 6.8 22 0 22 C0 14.74 0 7.48 0 0 Z " fill="#A8EDFD" transform="translate(205,346)"/>
<path d="M0 0 C6.93 0 13.86 0 21 0 C21 6.27 21 12.54 21 19 C14.07 19 7.14 19 0 19 C0 12.73 0 6.46 0 0 Z " fill="#A0EBFD" transform="translate(205,285)"/>
<path d="M0 0 C4.62 0 9.24 0 14 0 C14 14.19 14 28.38 14 43 C20.27 43 26.54 43 33 43 C33 39.04 33 35.08 33 31 C37.62 31 42.24 31 47 31 C47 31.33 47 31.66 47 32 C42.71 32 38.42 32 34 32 C34 35.96 34 39.92 34 44 C42.25 44 50.5 44 59 44 C59 29.81 59 15.62 59 1 C59.33 1 59.66 1 60 1 C60 15.52 60 30.04 60 45 C50.76 45 41.52 45 32 45 C32 49.29 32 53.58 32 58 C21.44 58 10.88 58 0 58 C0 38.86 0 19.72 0 0 Z M2 1 C2 19.48 2 37.96 2 57 C11.57 57 21.14 57 31 57 C31 53.04 31 49.08 31 45 C29.78441406 44.93941406 28.56882812 44.87882812 27.31640625 44.81640625 C25.73175772 44.73201668 24.14712298 44.6473679 22.5625 44.5625 C21.76005859 44.52318359 20.95761719 44.48386719 20.13085938 44.44335938 C14.11328125 44.11328125 14.11328125 44.11328125 13 43 C12.83958807 39.89914779 12.74036598 36.81812421 12.68359375 33.71484375 C12.66281265 32.78402481 12.64203156 31.85320587 12.62062073 30.8941803 C12.55502069 27.90869818 12.49619198 24.92312516 12.4375 21.9375 C12.3943247 19.91861024 12.35071075 17.8997298 12.30664062 15.88085938 C12.19932871 10.92066703 12.09809112 5.96038291 12 1 C8.7 1 5.4 1 2 1 Z " fill="#042678" transform="translate(252,272)"/>
<path d="M0 0 C4.62 0 9.24 0 14 0 C14 9.24 14 18.48 14 28 C13.34 27.67 12.68 27.34 12 27 C9.67583704 26.91413191 7.34916693 26.89288957 5.0234375 26.90234375 C4.33819 26.9037587 3.6529425 26.90517365 2.94692993 26.90663147 C0.75624239 26.91223325 -1.4343433 26.92478594 -3.625 26.9375 C-5.10937352 26.94251478 -6.59374865 26.94707772 -8.078125 26.95117188 C-11.71878315 26.96220323 -15.35938164 26.97946901 -19 27 C-19 26.67 -19 26.34 -19 26 C-12.73 26 -6.46 26 0 26 C0 17.42 0 8.84 0 0 Z " fill="#0D3F8A" transform="translate(299,333)"/>
<path d="M0 0 C9.9 0 19.8 0 30 0 C30 0.66 30 1.32 30 2 C20.76 2 11.52 2 2 2 C2 5.96 2 9.92 2 14 C1 15 1 15 -2.14282227 15.11352539 C-3.53402697 15.11336633 -4.92523761 15.10767506 -6.31640625 15.09765625 C-7.04746078 15.0962413 -7.77851532 15.09482635 -8.53172302 15.09336853 C-10.87535632 15.08775408 -13.21889539 15.07519922 -15.5625 15.0625 C-17.14778508 15.05748686 -18.73307166 15.05292363 -20.31835938 15.04882812 C-24.2122761 15.03777997 -28.10612205 15.02050572 -32 15 C-32 14.34 -32 13.68 -32 13 C-21.44 13 -10.88 13 0 13 C0 8.71 0 4.42 0 0 Z " fill="#A4E4F3" transform="translate(284,317)"/>
<path d="M0 0 C6.93 0 13.86 0 21 0 C21 6.27 21 12.54 21 19 C14.07 19 7.14 19 0 19 C0 12.73 0 6.46 0 0 Z M2 2 C2 7.28 2 12.56 2 18 C7.61 18 13.22 18 19 18 C19 12.72 19 7.44 19 2 C13.39 2 7.78 2 2 2 Z " fill="#A2DEEE" transform="translate(205,285)"/>
<path d="M0 0 C0.66 0 1.32 0 2 0 C2.515625 0.825 3.03125 1.65 3.5625 2.5 C8.21781789 9.76641869 15.09550717 14.47827786 22.8359375 17.9921875 C25 19 25 19 28 21 C19.42857143 22.42857143 19.42857143 22.42857143 16 20 C16 19.34 16 18.68 16 18 C15.01 18 14.02 18 13 18 C13 17.34 13 16.68 13 16 C12.01 16 11.02 16 10 16 C10 15.34 10 14.68 10 14 C9.01 13.67 8.02 13.34 7 13 C0 5.125 0 5.125 0 0 Z " fill="#C6C9CD" transform="translate(44,514)"/>
<path d="M0 0 C0 4.95 0 9.9 0 15 C-1.65 15.33 -3.3 15.66 -5 16 C-6.52713961 12.94572078 -5.4452876 10.7092749 -4.6875 7.4375 C-4.42324219 6.26058594 -4.15898438 5.08367187 -3.88671875 3.87109375 C-3.59410156 2.92363281 -3.30148437 1.97617188 -3 1 C-1 0 -1 0 0 0 Z " fill="#E9F2F3" transform="translate(533,110)"/>
<path d="M0 0 C0.66 0.99 1.32 1.98 2 3 C1.45730469 3.50789063 0.91460937 4.01578125 0.35546875 4.5390625 C-4.20000571 8.87385937 -4.20000571 8.87385937 -7.5625 14.125 C-9.54632307 18.09264613 -12.53352723 20.32179364 -16 23 C-16 18.73826628 -13.51054098 16.78157935 -10.8125 13.75 C-9.80008934 12.58636728 -8.78964856 11.42101755 -7.78125 10.25390625 C-7.29785156 9.69461426 -6.81445312 9.13532227 -6.31640625 8.55908203 C-4.01353537 5.8316834 -1.9941694 2.95687186 0 0 Z " fill="#0FA2D3" transform="translate(498,74)"/>
<path d="M0 0 C3.11682419 1.38049749 5.19592249 2.96792685 7.56640625 5.40625 C8.21673828 6.06753906 8.86707031 6.72882813 9.53710938 7.41015625 C10.20548828 8.09980469 10.87386719 8.78945312 11.5625 9.5 C12.89483725 10.86682728 14.22938615 12.2315031 15.56640625 13.59375 C16.15365479 14.19896484 16.74090332 14.80417969 17.34594727 15.42773438 C19.11908186 17.20303483 19.11908186 17.20303483 22 19 C22 19.66 22 20.32 22 21 C18.54883098 19.5155686 16.31140759 17.55666933 13.671875 14.90234375 C12.87265625 14.10119141 12.0734375 13.30003906 11.25 12.47460938 C10.425 11.63736328 9.6 10.80011719 8.75 9.9375 C7.90953125 9.09638672 7.0690625 8.25527344 6.203125 7.38867188 C0 1.14023184 0 1.14023184 0 0 Z " fill="#0599CF" transform="translate(415,95)"/>
<path d="M0 0 C0.33 0.66 0.66 1.32 1 2 C0.03523618 4.01723344 -0.96838392 6.01612292 -2 8 C-2.36784131 9.3242287 -2.71202981 10.65613912 -3 12 C-3.33 12.66 -3.66 13.32 -4 14 C-4.99 14 -5.98 14 -7 14 C-6.44010697 10.00987629 -5.24330232 7.4744948 -2.9375 4.1875 C-2.38964844 3.39730469 -1.84179688 2.60710938 -1.27734375 1.79296875 C-0.64505859 0.90544922 -0.64505859 0.90544922 0 0 Z " fill="#5F71B0" transform="translate(48,39)"/>
<path d="M0 0 C0.66 0.33 1.32 0.66 2 1 C-1.72143296 4.91447559 -5.14032976 8.49653351 -10 11 C-8.55218207 7.55571735 -6.72305391 5.63869038 -3.875 3.25 C-3.15054687 2.63640625 -2.42609375 2.0228125 -1.6796875 1.390625 C-0.84824219 0.70226562 -0.84824219 0.70226562 0 0 Z " fill="#0E9FD2" transform="translate(392,28)"/>
<path d="M0 0 C1.98 0 3.96 0 6 0 C6 0.66 6 1.32 6 2 C6.99 2 7.98 2 9 2 C9 2.66 9 3.32 9 4 C10.98 4 12.96 4 15 4 C15 4.33 15 4.66 15 5 C8.92671312 5.50610724 5.22771463 4.04157942 0 1 C0 0.67 0 0.34 0 0 Z " fill="#E0ECF0" transform="translate(479,17)"/>
<path d="M0 0 C0.66 0 1.32 0 2 0 C6 5.29411765 6 5.29411765 6 9 C3 8 3 8 1.3125 5.625 C0 3 0 3 0 0 Z " fill="#E7E9EE" transform="translate(44,514)"/>
<path d="M0 0 C4.455 0.99 4.455 0.99 9 2 C5.77208445 4.1519437 4.71599191 4.20086443 1 4 C0.67 2.68 0.34 1.36 0 0 Z " fill="#C1C3C6" transform="translate(63,532)"/>
<path d="M0 0 C1.65 0 3.3 0 5 0 C5 0.66 5 1.32 5 2 C6.98 2 8.96 2 11 2 C11 2.66 11 3.32 11 4 C4.375 4.125 4.375 4.125 1 3 C0.67 2.01 0.34 1.02 0 0 Z " fill="#96D1E4" transform="translate(468,13)"/>
<path d="M0 0 C0.66 0.33 1.32 0.66 2 1 C-0.64 3.97 -3.28 6.94 -6 10 C-6 6.41087588 -5.33563446 5.89142971 -3 3.3125 C-2.443125 2.68988281 -1.88625 2.06726563 -1.3125 1.42578125 C-0.879375 0.95527344 -0.44625 0.48476562 0 0 Z " fill="#0A9ED2" transform="translate(460,121)"/>
<path d="M0 0 C3.91606575 0.53400897 6.39338934 1.19669467 10 3 C6.04 3 2.08 3 -2 3 C-1.34 2.01 -0.68 1.02 0 0 Z " fill="#154A94" transform="translate(288,201)"/>
<path d="M0 0 C1.39195915 4.17587745 -0.17676781 6.13474776 -2 10 C-2.66 10 -3.32 10 -4 10 C-2.8905928 6.51329166 -1.73662334 3.22515763 0 0 Z " fill="#0FA2D2" transform="translate(370,53)"/>
<path d="M0 0 C0 0.99 0 1.98 0 3 C-2.5 5.1875 -2.5 5.1875 -5 7 C-5 5.68 -5 4.36 -5 3 C-2.5 1.25 -2.5 1.25 0 0 Z " fill="#3E519A" transform="translate(56,32)"/>
<path d="M0 0 C1.65 0 3.3 0 5 0 C5 0.66 5 1.32 5 2 C2.36 2.66 -0.28 3.32 -3 4 C-3 3.34 -3 2.68 -3 2 C-2.01 2 -1.02 2 0 2 C0 1.34 0 0.68 0 0 Z " fill="#465C99" transform="translate(66,25)"/>
</svg>
